<?xml version="1.0" encoding="UTF-8"?>
<svg id="Capa_2" data-name="Capa 2" xmlns="http://www.w3.org/2000/svg" viewBox="0 0 405.73 92.64">
  <defs>
    <style>
      .cls-1 {
        fill: #002e5a;
      }

      .cls-2 {
        fill: #3397d4;
      }
    </style>
  </defs>
  <g id="Capa_1-2" data-name="Capa 1">
    <g>
      <path class="cls-2" d="M181.28,73.7v18.42h-27.63v-36.84c15.24,0,27.63,8.26,27.63,18.42Z"/>
      <polygon class="cls-2" points="84.81 55.26 84.57 55.5 84.57 67.24 79.03 67.24 79.03 67.24 72.42 67.24 46.66 92.1 81.81 92.1 103.92 92.1 103.92 70.52 103.92 70.52 103.92 67.24 103.92 55.26 84.81 55.26"/>
      <polygon class="cls-2" points="70.16 30.39 103.92 30.39 103.92 .17 69.75 30.39 70.16 30.39"/>
      <g>
        <polygon class="cls-2" points="73.24 58.03 73.27 58.03 73.26 58.04 73.24 58.03"/>
        <polygon class="cls-2" points="34.73 92.1 0 92.1 38.52 58.03 70.02 58.03 34.73 92.1"/>
      </g>
      <g>
        <path class="cls-2" d="M234.11.96l-28.81,61.82h13.1l3.85-8.42h24.14l3.82,8.42h13.13L234.49.96h-.37ZM226.96,44.03l7.37-16.13,7.33,16.13h-14.71Z"/>
        <polygon class="cls-2" points="281.86 2.46 269.74 2.46 269.74 62.78 306.11 62.78 306.11 50.73 281.86 50.73 281.86 2.46"/>
        <polygon class="cls-2" points="346.23 26.56 325.43 26.56 325.43 14.4 349.67 14.4 349.67 2.31 313.3 2.31 313.3 62.85 325.43 62.85 325.43 38.64 346.23 38.64 346.23 26.56"/>
        <path class="cls-2" d="M374.11.96h-.37l-28.81,61.82h13.1l3.85-8.42h24.14l3.82,8.42h13.13L374.11.96ZM366.59,44.03l7.37-16.13,7.33,16.13h-14.71Z"/>
      </g>
      <path class="cls-1" d="M181.28,0v35.06c-2.97-4.47-8.04-7.42-13.79-7.43h0s-13.84,0-13.84,0V0h27.63Z"/>
      <path class="cls-1" d="M181.28,44.17c-.02-7.59-6.2-13.77-13.8-13.77h0s-35.93,0-35.93,0V0h-27.44l-.19.17v30.23h-34.16l-28.11,24.87h31.24l11.93-11.5v11.5h19.1v36.84h27.63v-36.84h22.11c15.24,0,27.63,8.26,27.63,18.42v-9.67h0v-19.85h0Z"/>
      <g>
        <polygon class="cls-1" points="218.77 78.04 205.79 78.04 205.79 66.68 202.9 66.68 202.9 92.29 205.79 92.29 205.79 80.9 218.77 80.9 218.77 92.29 221.65 92.29 221.65 66.68 218.77 66.68 218.77 78.04"/>
        <path class="cls-1" d="M245.19,66.32c-7.23,0-13.15,5.93-13.15,13.19s5.93,13.12,13.14,13.12,13.19-5.91,13.19-13.12-5.93-13.19-13.17-13.19ZM245.18,89.7c-5.62,0-10.22-4.59-10.22-10.22s4.59-10.26,10.22-10.26,10.26,4.62,10.26,10.26-4.61,10.22-10.26,10.22Z"/>
        <path class="cls-1" d="M277.36,77.9c-3.3-1.27-6.12-2.18-6.12-4.66,0-2.29,2.35-4.1,5.1-4.1,2.3,0,4.37,1.3,5.2,3.22l2.18-1.46c-.95-2.53-3.54-4.61-7.34-4.61-4.5,0-8.04,2.94-8.04,6.88s3.51,5.5,6.66,6.72c3.27,1.24,6.94,2.62,6.94,5.5,0,2.53-2.73,4.34-6.08,4.34-2.72,0-5.34-1.46-6.5-3.65l-2.22,1.64c1.22,2.73,4.5,4.92,8.71,4.92,4.92,0,9.01-2.88,9.01-7.29,0-4.12-3.64-5.89-7.48-7.45Z"/>
        <path class="cls-1" d="M303.09,66.68h-8.12v25.61h2.89v-9.45h5.23c4.96,0,9.01-3.54,9.01-7.9s-4.05-8.26-9.01-8.26ZM303.09,80l-5.23-.02v-10.44h5.23c3.37,0,6.12,2.41,6.12,5.37s-2.75,5.1-6.12,5.08Z"/>
        <rect class="cls-1" x="321.95" y="66.68" width="2.89" height="25.61"/>
        <polygon class="cls-1" points="334.69 69.54 342.14 69.54 342.14 92.29 345.04 92.29 345.04 69.54 352.45 69.54 352.45 66.68 334.69 66.68 334.69 69.54"/>
        <path class="cls-1" d="M368.68,66.29l-11.84,26.01h3.13l1.87-4.21h13.98l1.87,4.21h3.15l-11.85-26.01h-.32ZM362.97,85.57l5.88-13.17,5.86,13.17h-11.74Z"/>
        <polygon class="cls-1" points="393.18 89.42 393.18 66.68 390.29 66.68 390.29 92.29 405.73 92.29 405.73 89.42 393.18 89.42"/>
      </g>
    </g>
  </g>
</svg>